<?xml version="1.0" encoding="utf-8"?>
<!-- Generator: Adobe Illustrator 21.0.0, SVG Export Plug-In . SVG Version: 6.00 Build 0)  -->
<svg version="1.1" id="Layer_1" xmlns="http://www.w3.org/2000/svg" xmlns:xlink="http://www.w3.org/1999/xlink" x="0px" y="0px"
	 viewBox="0 0 544 114" style="enable-background:new 0 0 544 114;" xml:space="preserve">
<style type="text/css">
	.st0{fill:#FFFFFF;}
	.st1{fill:#989C9E;}
	.st2{enable-background:new    ;}
	.st3{fill:#71797F;}
	.st4{fill:none;}
	.st5{fill:#91CCF8;}
	.st6{fill:#869096;}
	.st7{fill:#666C70;}
	.st8{fill:#CAEBFF;}
	.st9{fill:#4D5257;}
	.st10{fill:#8A8A8A;}
</style>
<g>
	<polygon class="st0" points="20.5,112.5 20.5,1.5 77.4,1.5 104.5,28.6 104.5,112.5 	"/>
	<path class="st1" d="M76.8,3L103,29.2V111H22V3H76.8 M78,0H19v114h87V28L78,0L78,0z"/>
</g>
<g class="st2">
	<path class="st3" d="M39.4,45.7L39.4,45.7L38,46.4l-0.2-0.8l1.7-0.9h0.9v7.8h-1V45.7z"/>
	<path class="st3" d="M48.4,48.5c0,2.7-1,4.1-2.7,4.1c-1.5,0-2.6-1.4-2.6-4c0-2.6,1.1-4.1,2.7-4.1C47.5,44.6,48.4,46.1,48.4,48.5z
		 M44.2,48.7c0,2,0.6,3.2,1.6,3.2c1.1,0,1.6-1.3,1.6-3.2c0-1.9-0.5-3.2-1.6-3.2C44.9,45.4,44.2,46.5,44.2,48.7z"/>
	<path class="st3" d="M51.7,45.7L51.7,45.7l-1.4,0.7l-0.2-0.8l1.7-0.9h0.9v7.8h-1V45.7z"/>
	<path class="st3" d="M60.8,48.5c0,2.7-1,4.1-2.7,4.1c-1.5,0-2.6-1.4-2.6-4c0-2.6,1.1-4.1,2.7-4.1C59.8,44.6,60.8,46.1,60.8,48.5z
		 M56.5,48.7c0,2,0.6,3.2,1.6,3.2c1.1,0,1.6-1.3,1.6-3.2c0-1.9-0.5-3.2-1.6-3.2C57.2,45.4,56.5,46.5,56.5,48.7z"/>
	<path class="st3" d="M64,45.7L64,45.7l-1.4,0.7l-0.2-0.8l1.7-0.9H65v7.8h-1V45.7z"/>
	<path class="st3" d="M70.2,45.7L70.2,45.7l-1.4,0.7l-0.2-0.8l1.7-0.9h0.9v7.8h-1V45.7z"/>
	<path class="st3" d="M79.2,48.5c0,2.7-1,4.1-2.7,4.1c-1.5,0-2.6-1.4-2.6-4c0-2.6,1.1-4.1,2.7-4.1C78.3,44.6,79.2,46.1,79.2,48.5z
		 M75,48.7c0,2,0.6,3.2,1.6,3.2c1.1,0,1.6-1.3,1.6-3.2c0-1.9-0.5-3.2-1.6-3.2C75.7,45.4,75,46.5,75,48.7z"/>
	<path class="st3" d="M82.5,45.7L82.5,45.7l-1.4,0.7l-0.2-0.8l1.7-0.9h0.9v7.8h-1V45.7z"/>
</g>
<g class="st2">
	<path class="st3" d="M39.4,65.7L39.4,65.7L38,66.4l-0.2-0.8l1.7-0.9h0.9v7.8h-1V65.7z"/>
	<path class="st3" d="M48.4,68.5c0,2.7-1,4.1-2.7,4.1c-1.5,0-2.6-1.4-2.6-4c0-2.6,1.1-4.1,2.7-4.1C47.5,64.6,48.4,66.1,48.4,68.5z
		 M44.2,68.7c0,2,0.6,3.2,1.6,3.2c1.1,0,1.6-1.3,1.6-3.2c0-1.9-0.5-3.2-1.6-3.2C44.9,65.4,44.2,66.5,44.2,68.7z"/>
	<path class="st3" d="M51.7,65.7L51.7,65.7l-1.4,0.7l-0.2-0.8l1.7-0.9h0.9v7.8h-1V65.7z"/>
	<path class="st3" d="M60.8,68.5c0,2.7-1,4.1-2.7,4.1c-1.5,0-2.6-1.4-2.6-4c0-2.6,1.1-4.1,2.7-4.1C59.8,64.6,60.8,66.1,60.8,68.5z
		 M56.5,68.7c0,2,0.6,3.2,1.6,3.2c1.1,0,1.6-1.3,1.6-3.2c0-1.9-0.5-3.2-1.6-3.2C57.2,65.4,56.5,66.5,56.5,68.7z"/>
	<path class="st3" d="M66.9,68.5c0,2.7-1,4.1-2.7,4.1c-1.5,0-2.6-1.4-2.6-4c0-2.6,1.1-4.1,2.7-4.1C66,64.6,66.9,66.1,66.9,68.5z
		 M62.7,68.7c0,2,0.6,3.2,1.6,3.2c1.1,0,1.6-1.3,1.6-3.2c0-1.9-0.5-3.2-1.6-3.2C63.4,65.4,62.7,66.5,62.7,68.7z"/>
	<path class="st3" d="M73.1,68.5c0,2.7-1,4.1-2.7,4.1c-1.5,0-2.6-1.4-2.6-4c0-2.6,1.1-4.1,2.7-4.1C72.1,64.6,73.1,66.1,73.1,68.5z
		 M68.8,68.7c0,2,0.6,3.2,1.6,3.2c1.1,0,1.6-1.3,1.6-3.2c0-1.9-0.5-3.2-1.6-3.2C69.5,65.4,68.8,66.5,68.8,68.7z"/>
	<path class="st3" d="M76.3,65.7L76.3,65.7L75,66.4l-0.2-0.8l1.7-0.9h0.9v7.8h-1V65.7z"/>
	<path class="st3" d="M85.4,68.5c0,2.7-1,4.1-2.7,4.1c-1.5,0-2.6-1.4-2.6-4c0-2.6,1.1-4.1,2.7-4.1C84.4,64.6,85.4,66.1,85.4,68.5z
		 M81.1,68.7c0,2,0.6,3.2,1.6,3.2c1.1,0,1.6-1.3,1.6-3.2c0-1.9-0.5-3.2-1.6-3.2C81.8,65.4,81.1,66.5,81.1,68.7z"/>
</g>
<g class="st2">
	<path class="st3" d="M42.3,88.5c0,2.7-1,4.1-2.7,4.1c-1.5,0-2.6-1.4-2.6-4c0-2.6,1.1-4.1,2.7-4.1C41.4,84.6,42.3,86.1,42.3,88.5z
		 M38.1,88.7c0,2,0.6,3.2,1.6,3.2c1.1,0,1.6-1.3,1.6-3.2c0-1.9-0.5-3.2-1.6-3.2C38.7,85.4,38.1,86.5,38.1,88.7z"/>
	<path class="st3" d="M45.6,85.7L45.6,85.7l-1.4,0.7L44,85.6l1.7-0.9h0.9v7.8h-1V85.7z"/>
	<path class="st3" d="M54.6,88.5c0,2.7-1,4.1-2.7,4.1c-1.5,0-2.6-1.4-2.6-4c0-2.6,1.1-4.1,2.7-4.1C53.7,84.6,54.6,86.1,54.6,88.5z
		 M50.4,88.7c0,2,0.6,3.2,1.6,3.2c1.1,0,1.6-1.3,1.6-3.2c0-1.9-0.5-3.2-1.6-3.2C51,85.4,50.4,86.5,50.4,88.7z"/>
	<path class="st3" d="M57.9,85.7L57.9,85.7l-1.4,0.7l-0.2-0.8l1.7-0.9h0.9v7.8h-1V85.7z"/>
	<path class="st3" d="M64,85.7L64,85.7l-1.4,0.7l-0.2-0.8l1.7-0.9H65v7.8h-1V85.7z"/>
	<path class="st3" d="M73.1,88.5c0,2.7-1,4.1-2.7,4.1c-1.5,0-2.6-1.4-2.6-4c0-2.6,1.1-4.1,2.7-4.1C72.1,84.6,73.1,86.1,73.1,88.5z
		 M68.8,88.7c0,2,0.6,3.2,1.6,3.2c1.1,0,1.6-1.3,1.6-3.2c0-1.9-0.5-3.2-1.6-3.2C69.5,85.4,68.8,86.5,68.8,88.7z"/>
	<path class="st3" d="M76.3,85.7L76.3,85.7L75,86.4l-0.2-0.8l1.7-0.9h0.9v7.8h-1V85.7z"/>
	<path class="st3" d="M85.4,88.5c0,2.7-1,4.1-2.7,4.1c-1.5,0-2.6-1.4-2.6-4c0-2.6,1.1-4.1,2.7-4.1C84.4,84.6,85.4,86.1,85.4,88.5z
		 M81.1,88.7c0,2,0.6,3.2,1.6,3.2c1.1,0,1.6-1.3,1.6-3.2c0-1.9-0.5-3.2-1.6-3.2C81.8,85.4,81.1,86.5,81.1,88.7z"/>
</g>
<g>
	<rect x="75" class="st1" width="3" height="31"/>
</g>
<g>
	<rect x="75" y="28" class="st1" width="31" height="3"/>
</g>
<g>
	<path class="st4" d="M34,6.7c-5.3,0-10.4,1.2-15,3.2v67.6c4.6,2,9.7,3.2,15,3.2c20.4,0,37-16.6,37-37S54.4,6.7,34,6.7z"/>
	<g>
		<circle class="st5" cx="34" cy="43.7" r="30.7"/>
	</g>
	<g>
		<path class="st0" d="M70.6,90.8L51.7,71.9c-1.2-1.2,9.3-11.7,10.5-10.5l18.9,18.9c1.2,1.2-0.2,4.6-3.1,7.4l0,0
			C75.1,90.6,71.8,92,70.6,90.8z"/>
	</g>
	<g>
		<path class="st0" d="M80.1,103.2L50.7,73.7C48.8,71.9,62.1,58.5,64,60.4l29.4,29.4c1.9,1.9,0.4,6.4-3.3,10.1l0,0
			C86.5,103.6,82,105.1,80.1,103.2z"/>
	</g>
	<g>
		<path class="st6" d="M71.9,86.1L54.8,69c-1.1-1.1,3.4-5.6,4.5-4.5l17.1,17.1c1.1,1.1,1,3-0.3,4.2l0,0C74.9,87.1,73,87.2,71.9,86.1
			z"/>
	</g>
	<g>
		<path class="st7" d="M78.9,96.2L59.1,76.4c-1.3-1.3,6.2-8.8,7.5-7.5l19.8,19.8c1.3,1.3,0.6,4-1.5,6.1l0,0
			C82.9,96.8,80.2,97.4,78.9,96.2z"/>
	</g>
	<g>
		<path class="st6" d="M59.7,76.9l-1.5-1.5c-0.1-0.1,7.4-7.6,7.5-7.5l1.5,1.5c0.1,0.1-1.5,1.9-3.6,3.9l0,0
			C61.6,75.4,59.8,77,59.7,76.9z"/>
	</g>
	<g>
		<path class="st7" d="M34,14c16.5,0,30,13.5,30,30S50.5,74,34,74S4,60.5,4,44S17.5,14,34,14 M34,10C15.2,10,0,25.2,0,44
			s15.2,34,34,34s34-15.2,34-34S52.8,10,34,10L34,10z"/>
	</g>
</g>
<g>
	<path class="st8" d="M33,23c-2.2,0-4,1.8-4,4s1.8,4,4,4c6.8,0,13.6,5.3,14,12c0,2.2,1.8,4,4,4s4-1.8,4-4C54.6,31.7,44.4,23,33,23z"
		/>
</g>
<g>
	<path class="st9" d="M188.4,15.5c1,3.2,2,6.6,3.1,10.1s2.2,7,3.4,10.5s2.3,7,3.5,10.4s2.3,6.6,3.4,9.6c0.9-3.2,1.8-6.8,2.6-10.6
		s1.7-7.8,2.5-11.9s1.7-8.3,2.5-12.6s1.6-8.5,2.3-12.6h11.7c-2.1,11.3-4.4,22.1-7,32.5s-5.5,20.4-8.6,29.8h-10.9
		c-4.6-12.1-9.1-25.3-13.5-39.7c-2.2,7.3-4.5,14.2-6.8,20.7s-4.6,12.9-6.8,19H159c-3.2-9.5-6.1-19.4-8.7-29.8
		c-2.5-10.4-4.9-21.3-7-32.5h12.1c0.7,4.1,1.5,8.3,2.3,12.5c0.8,4.3,1.6,8.4,2.5,12.6c0.9,4.1,1.8,8.1,2.7,11.9
		c0.9,3.8,1.8,7.4,2.7,10.6c1.1-3.1,2.3-6.3,3.5-9.7s2.3-6.8,3.5-10.4c1.1-3.5,2.2-7,3.3-10.5c1-3.5,2-6.8,2.9-10.1h9.6L188.4,15.5
		L188.4,15.5z"/>
	<path class="st9" d="M240,10c0,2-0.7,3.7-2,4.9s-2.9,1.8-4.7,1.8c-1.9,0-3.5-0.6-4.8-1.8s-2-2.8-2-4.9s0.7-3.7,2-5
		c1.3-1.2,2.9-1.8,4.8-1.8c1.8,0,3.4,0.6,4.7,1.8C239.3,6.2,240,7.9,240,10z M238.8,70.8h-10.9v-47h10.9V70.8z"/>
	<path class="st9" d="M259.1,42.1c1.4-1.4,2.8-3,4.4-4.6s3.1-3.3,4.6-5c1.5-1.6,2.9-3.2,4.3-4.8c1.3-1.5,2.5-2.9,3.5-4h12.9
		c-3,3.4-6.2,6.8-9.5,10.4s-6.7,7.1-10,10.5c1.8,1.5,3.7,3.3,5.7,5.4c2,2.1,3.9,4.4,5.7,6.8c1.9,2.4,3.6,4.8,5.2,7.2s3,4.6,4,6.7
		h-12.6c-1.1-1.9-2.3-3.8-3.7-5.8c-1.4-2-2.9-4-4.5-5.9s-3.3-3.7-5-5.4s-3.3-3.2-5-4.4v21.6h-10.9v-68L259.1,1V42.1z"/>
	<path class="st9" d="M305.4,10c0,2-0.7,3.7-2,4.9s-2.9,1.8-4.7,1.8c-1.9,0-3.5-0.6-4.8-1.8s-2-2.8-2-4.9s0.7-3.7,2-5
		c1.3-1.2,2.9-1.8,4.8-1.8c1.8,0,3.4,0.6,4.7,1.8C304.8,6.2,305.4,7.9,305.4,10z M304.3,70.8h-10.9v-47h10.9V70.8z"/>
	<path class="st9" d="M330.6,70.8V8.5h40v9.6H342v15.4h25.6v9.4H342v18.3h30.9v9.6H330.6z"/>
	<path class="st9" d="M396,38.2l10-14.4h11.4l-15.8,22.5c3.3,4.1,6.5,8.3,9.5,12.6c3,4.2,5.5,8.2,7.5,12h-11.9
		c-0.5-1.1-1.3-2.3-2.1-3.6c-0.9-1.3-1.8-2.7-2.8-4.1s-2-2.8-3.1-4.3s-2.1-2.7-3.1-4c-2.1,2.4-4.2,5.2-6.2,8.1c-2,3-3.7,5.6-5,7.9
		h-11.1c0.9-1.8,2-3.7,3.3-5.7s2.7-4,4.2-6.1s3-4.2,4.6-6.3s3.1-4.1,4.7-6l-16-23h12L396,38.2z"/>
	<path class="st9" d="M421.6,11.3l10.9-1.8v14.2h16.7v9.1h-16.7V52c0,3.8,0.6,6.5,1.8,8.1c1.2,1.6,3.2,2.4,6.1,2.4
		c2,0,3.7-0.2,5.3-0.6c1.5-0.4,2.7-0.8,3.6-1.2l1.8,8.6c-1.3,0.5-2.9,1.1-5,1.7c-2,0.6-4.4,0.9-7.2,0.9c-3.4,0-6.2-0.5-8.4-1.3
		c-2.2-0.9-4-2.2-5.4-3.9c-1.3-1.7-2.2-3.8-2.8-6.2c-0.5-2.4-0.8-5.2-0.8-8.3V11.3H421.6z"/>
</g>
<g>
	<path class="st10" d="M152.9,113.1V96.7h11.6v2.1h-9.2v4.9h8.1v2h-8.1v7.4H152.9z"/>
	<path class="st10" d="M166.9,113.1V96.7h2.3v16.4C169.2,113.1,166.9,113.1,166.9,113.1z"/>
	<path class="st10" d="M173,113.1V96.7h2.4V111h8.6v2.1H173z"/>
	<path class="st10" d="M185.9,113.1V96.7h12.3v2.1h-10v4.9h9.2v1.9h-9.2v5.5h10.2v2.1L185.9,113.1L185.9,113.1z"/>
	<path class="st10" d="M207.8,113.1V96.7h12.3v2.1h-10v4.9h9.2v1.9h-9.2v5.5h10.2v2.1L207.8,113.1L207.8,113.1z"/>
	<path class="st10" d="M221.3,113.1l5.9-8.4l-5.6-8h2.9l4.1,6.1l4.2-6.1h2.7l-5.6,8l5.9,8.5h-2.9l-4.4-6.6l-4.3,6.6L221.3,113.1
		L221.3,113.1z"/>
	<path class="st10" d="M241.4,113.1V98.7H236v-2h13.3v2h-5.4v14.4H241.4z"/>
	<path class="st10" d="M251.3,113.1V96.7h12.3v2.1h-10v4.9h9.2v1.9h-9.2v5.5h10.2v2.1L251.3,113.1L251.3,113.1z"/>
	<path class="st10" d="M266.6,113.1V96.7h2.6l8.1,11.9c0.2,0.3,0.3,0.5,0.5,0.8c0.2,0.3,0.2,0.5,0.3,0.7V96.7h2.2v16.4h-2.5
		l-8.2-12.1c-0.1-0.2-0.2-0.4-0.3-0.6c-0.1-0.2-0.2-0.4-0.3-0.7v13.3L266.6,113.1L266.6,113.1z"/>
	<path class="st10" d="M283.2,107.7h2.3c0,1.1,0.4,2.1,1.2,2.8c0.8,0.8,1.9,1,3.2,1c1.3,0,2.4-0.3,3.2-0.8s1.2-1.2,1.2-2.2
		c0-1.2-1.4-2.2-4.3-2.8c-0.2,0-0.3-0.1-0.4-0.1c-2.3-0.6-3.9-1.1-4.6-1.8s-1.1-1.6-1.1-2.8c0-1.4,0.6-2.7,1.7-3.5
		c1.1-0.9,2.6-1.3,4.5-1.3s3.4,0.5,4.5,1.4c1.1,0.9,1.6,2.2,1.7,3.8h-2.2c-0.1-1.1-0.5-1.9-1.2-2.6c-0.7-0.7-1.7-0.9-2.9-0.9
		c-1.1,0-2.1,0.3-2.8,0.8c-0.7,0.5-1,1.1-1,1.9c0,1.2,1.4,2.2,4.3,2.8c0.4,0.1,1.2,0.3,1.2,0.3c1.9,0.4,3.1,0.9,3.7,1.3
		c0.5,0.4,0.8,0.9,1.1,1.3s0.4,1.1,0.4,1.8c0,1.6-0.6,2.8-1.8,3.8c-1.2,0.9-2.8,1.4-4.8,1.4c-2.1,0-3.7-0.5-4.9-1.5
		C284.2,111,283.3,109.6,283.2,107.7z"/>
	<path class="st10" d="M299.5,113.1V96.7h2.3v16.4C301.8,113.1,299.5,113.1,299.5,113.1z"/>
	<path class="st10" d="M304.9,105c0-2.8,0.7-4.8,2.2-6.4s3.5-2.3,6-2.3c2.6,0,4.6,0.8,6,2.3s2.2,3.6,2.2,6.4c0,2.8-0.7,4.8-2.2,6.4
		s-3.4,2.3-6,2.3s-4.6-0.8-6-2.3S304.9,107.6,304.9,105z M307.3,105c0,2.1,0.5,3.7,1.5,4.9c1,1.2,2.4,1.8,4.2,1.8
		c1.8,0,3.2-0.6,4.2-1.8c1-1.2,1.5-2.8,1.5-4.9s-0.5-3.7-1.5-4.9c-1-1.2-2.4-1.8-4.2-1.8c-1.8,0-3.2,0.6-4.2,1.8
		C307.8,101.3,307.3,102.8,307.3,105z"/>
	<path class="st10" d="M324.2,113.1V96.7h2.6l8.1,11.9c0.2,0.3,0.3,0.5,0.5,0.8c0.2,0.3,0.2,0.5,0.3,0.7V96.7h2.2v16.4h-2.5
		l-8.2-12.1c-0.1-0.2-0.2-0.4-0.3-0.6c-0.1-0.2-0.2-0.4-0.3-0.7v13.3L324.2,113.1L324.2,113.1z"/>
	<path class="st10" d="M340.7,107.7h2.3c0,1.1,0.4,2.1,1.2,2.8c0.8,0.8,1.9,1,3.2,1c1.3,0,2.4-0.3,3.2-0.8s1.2-1.2,1.2-2.2
		c0-1.2-1.4-2.2-4.3-2.8c-0.2,0-0.3-0.1-0.4-0.1c-2.3-0.6-3.9-1.1-4.6-1.8s-1.1-1.6-1.1-2.8c0-1.4,0.6-2.7,1.7-3.5
		c1.1-0.9,2.6-1.3,4.5-1.3s3.4,0.5,4.5,1.4c1.1,0.9,1.6,2.2,1.7,3.8h-2.2c-0.1-1.1-0.5-1.9-1.2-2.6c-0.7-0.7-1.7-0.9-2.9-0.9
		c-1.1,0-2.1,0.3-2.8,0.8c-0.7,0.5-1,1.1-1,1.9c0,1.2,1.4,2.2,4.3,2.8c0.4,0.1,1.2,0.3,1.2,0.3c1.9,0.4,3.1,0.9,3.7,1.3
		c0.5,0.4,0.8,0.9,1.1,1.3s0.4,1.1,0.4,1.8c0,1.6-0.6,2.8-1.8,3.8c-1.2,0.9-2.8,1.4-4.8,1.4c-2.1,0-3.7-0.5-4.9-1.5
		C341.7,111,340.8,109.6,340.7,107.7z"/>
	<path class="st10" d="M363.6,113.1V96.7h12.3v2.1h-10v4.9h9.2v1.9h-9.2v5.5h10.2v2.1L363.6,113.1L363.6,113.1z"/>
	<path class="st10" d="M378.9,113.1V96.7h2.6l8.1,11.9c0.2,0.3,0.3,0.5,0.5,0.8c0.2,0.3,0.2,0.5,0.3,0.7V96.7h2.2v16.4H390
		l-8.2-12.1c-0.1-0.2-0.2-0.4-0.3-0.6c-0.1-0.2-0.2-0.4-0.3-0.7v13.3L378.9,113.1L378.9,113.1z"/>
	<path class="st10" d="M408.3,107h2.3c-0.1,2-0.8,3.6-2.2,4.7s-3.1,1.8-5.2,1.8c-2.4,0-4.3-0.8-5.7-2.4s-2.1-3.7-2.1-6.6
		c0-2.6,0.7-4.6,2.2-6.1s3.4-2.3,5.8-2.3c2,0,3.6,0.5,4.8,1.4c1.2,0.9,2,2.3,2.2,3.9h-2.3c-0.2-1-0.7-1.9-1.6-2.5s-1.9-0.9-3.2-0.9
		c-1.8,0-3.1,0.6-4.1,1.7s-1.4,2.8-1.4,4.9c0,2,0.5,3.6,1.5,4.8s2.3,1.8,4,1.8c1.4,0,2.6-0.4,3.5-1.2
		C407.7,109.5,408.2,108.4,408.3,107z"/>
	<path class="st10" d="M420,113.1h-2.4v-6.6l-6.4-9.8h2.9l4.6,7.8l4.6-7.8h2.8l-6.1,9.6V113.1z"/>
	<path class="st10" d="M439.5,107h2.3c-0.1,2-0.8,3.6-2.2,4.7s-3.1,1.8-5.2,1.8c-2.4,0-4.3-0.8-5.7-2.4s-2.1-3.7-2.1-6.6
		c0-2.6,0.7-4.6,2.2-6.1s3.4-2.3,5.8-2.3c2,0,3.6,0.5,4.8,1.4c1.2,0.9,2,2.3,2.2,3.9h-2.3c-0.2-1-0.7-1.9-1.6-2.5s-1.9-0.9-3.2-0.9
		c-1.8,0-3.1,0.6-4.1,1.7s-1.4,2.8-1.4,4.9c0,2,0.5,3.6,1.5,4.8s2.3,1.8,4,1.8c1.4,0,2.6-0.4,3.5-1.2
		C438.9,109.5,439.4,108.4,439.5,107z"/>
	<path class="st10" d="M444.5,113.1V96.7h2.4V111h8.6v2.1H444.5z"/>
	<path class="st10" d="M455.7,105c0-2.8,0.7-4.8,2.2-6.4s3.5-2.3,6-2.3c2.6,0,4.6,0.8,6,2.3s2.2,3.6,2.2,6.4c0,2.8-0.7,4.8-2.2,6.4
		s-3.4,2.3-6,2.3s-4.6-0.8-6-2.3S455.7,107.6,455.7,105z M458.2,105c0,2.1,0.5,3.7,1.5,4.9c1,1.2,2.4,1.8,4.2,1.8
		c1.8,0,3.2-0.6,4.2-1.8c1-1.2,1.5-2.8,1.5-4.9s-0.5-3.7-1.5-4.9c-1-1.2-2.4-1.8-4.2-1.8c-1.8,0-3.2,0.6-4.2,1.8
		C458.7,101.3,458.2,102.8,458.2,105z"/>
	<path class="st10" d="M475,113.1V96.7h6.4c1,0,1.8,0.1,2.4,0.2s1,0.3,1.4,0.5c0.7,0.4,1.2,0.9,1.6,1.6c0.4,0.8,0.6,1.5,0.6,2.5
		s-0.2,1.7-0.6,2.4s-0.9,1.2-1.6,1.7c-0.4,0.2-0.9,0.4-1.5,0.5s-1.5,0.2-2.8,0.2h-3.6v6.9H475z M477.4,104.2h3.9
		c1.4,0,2.3-0.2,2.9-0.7c0.6-0.5,0.8-1.1,0.8-2.1s-0.3-1.7-0.8-2.1c-0.5-0.4-1.4-0.7-2.7-0.7h-4.1L477.4,104.2L477.4,104.2z"/>
	<path class="st10" d="M490.2,113.1V96.7h12.3v2.1h-10v4.9h9.2v1.9h-9.2v5.5h10.2v2.1L490.2,113.1L490.2,113.1z"/>
	<path class="st10" d="M505.5,113.1V96.7h6.6c2.4,0,4.2,0.7,5.5,2.1c1.3,1.4,1.9,3.3,1.9,5.9c0,2.7-0.7,4.7-2,6.2
		c-1.3,1.4-3.2,2.2-5.5,2.2L505.5,113.1L505.5,113.1z M511.9,98.6h-4v12.5h4c1.7,0,3-0.6,3.9-1.6s1.3-2.7,1.3-4.7
		c0-2-0.4-3.5-1.3-4.6S513.6,98.6,511.9,98.6z"/>
	<path class="st10" d="M522.5,113.1V96.7h2.3v16.4C524.8,113.1,522.5,113.1,522.5,113.1z"/>
	<path class="st10" d="M526.7,113.1l6.4-16.4h2.6l6.4,16.4h-2.5l-1.8-4.9H531l-1.8,4.9C529.2,113.1,526.7,113.1,526.7,113.1z
		 M531.7,106.3h5.4l-2.7-7.2L531.7,106.3z"/>
</g>
</svg>
